<?xml version="1.0" encoding="UTF-8" standalone="no"?><svg xmlns="http://www.w3.org/2000/svg" xmlns:xlink="http://www.w3.org/1999/xlink" contentScriptType="application/ecmascript" contentStyleType="text/css" height="293px" preserveAspectRatio="none" style="width:217px;height:293px;background:#FFFFFF;" version="1.1" viewBox="0 0 217 293" width="217px" zoomAndPan="magnify"><defs><filter height="300%" id="f14zp7z63jf7gn" width="300%" x="-1" y="-1"><feGaussianBlur result="blurOut" stdDeviation="2.0"/><feColorMatrix in="blurOut" result="blurOut2" type="matrix" values="0 0 0 0 0 0 0 0 0 0 0 0 0 0 0 0 0 0 .4 0"/><feOffset dx="4.0" dy="4.0" in="blurOut2" result="blurOut3"/><feBlend in="SourceGraphic" in2="blurOut3" mode="normal"/></filter></defs><g><ellipse cx="99.5" cy="20" fill="#000000" filter="url(#f14zp7z63jf7gn)" rx="10" ry="10" style="stroke:none;stroke-width:1.0;"/><rect fill="#FEFECE" filter="url(#f14zp7z63jf7gn)" height="36.3887" rx="12.5" ry="12.5" style="stroke:#A80036;stroke-width:1.5;" width="116" x="41.5" y="99.5115"/><text fill="#000000" font-family="sans-serif" font-size="12" lengthAdjust="spacing" textLength="93" x="54.5" y="123.2634">raftNode.Ready()</text><polygon fill="#FEFECE" filter="url(#f14zp7z63jf7gn)" points="32,50,167,50,179,62,167,74,32,74,20,62,32,50" style="stroke:#A80036;stroke-width:1.5;"/><text fill="#000000" font-family="sans-serif" font-size="11" lengthAdjust="spacing" textLength="19" x="103.5" y="86.606">true</text><text fill="#000000" font-family="sans-serif" font-size="11" lengthAdjust="spacing" textLength="135" x="32" y="67.0945">raft.RawNode.HasReady()?</text><polygon fill="#FEFECE" filter="url(#f14zp7z63jf7gn)" points="99.5,155.9001,111.5,167.9001,99.5,179.9001,87.5,167.9001,99.5,155.9001" style="stroke:#A80036;stroke-width:1.5;"/><rect fill="#FEFECE" filter="url(#f14zp7z63jf7gn)" height="36.3887" rx="12.5" ry="12.5" style="stroke:#A80036;stroke-width:1.5;" width="155" x="22" y="199.9001"/><text fill="#000000" font-family="sans-serif" font-size="12" lengthAdjust="spacing" textLength="132" x="35" y="223.6521">raft.RawNode.Advance()</text><ellipse cx="99.5" cy="266.2888" fill="#FFFFFF" filter="url(#f14zp7z63jf7gn)" rx="10" ry="10" style="stroke:#000000;stroke-width:1.5;"/><line style="stroke:#000000;stroke-width:2.5;" x1="93.3128" x2="105.6872" y1="260.1016" y2="272.476"/><line style="stroke:#000000;stroke-width:2.5;" x1="105.6872" x2="93.3128" y1="260.1016" y2="272.476"/><line style="stroke:#A80036;stroke-width:1.5;" x1="99.5" x2="99.5" y1="74" y2="99.5115"/><polygon fill="#A80036" points="95.5,89.5115,99.5,99.5115,103.5,89.5115,99.5,93.5115" style="stroke:#A80036;stroke-width:1.0;"/><line style="stroke:#A80036;stroke-width:1.5;" x1="179" x2="191" y1="62" y2="62"/><polygon fill="#A80036" points="187,107.7058,191,117.7058,195,107.7058,191,111.7058" style="stroke:#A80036;stroke-width:1.5;"/><line style="stroke:#A80036;stroke-width:1.5;" x1="191" x2="191" y1="62" y2="167.9001"/><line style="stroke:#A80036;stroke-width:1.5;" x1="191" x2="111.5" y1="167.9001" y2="167.9001"/><polygon fill="#A80036" points="121.5,163.9001,111.5,167.9001,121.5,171.9001,117.5,167.9001" style="stroke:#A80036;stroke-width:1.0;"/><line style="stroke:#A80036;stroke-width:1.5;" x1="99.5" x2="99.5" y1="135.9001" y2="155.9001"/><polygon fill="#A80036" points="95.5,145.9001,99.5,155.9001,103.5,145.9001,99.5,149.9001" style="stroke:#A80036;stroke-width:1.0;"/><line style="stroke:#A80036;stroke-width:1.5;" x1="99.5" x2="99.5" y1="30" y2="50"/><polygon fill="#A80036" points="95.5,40,99.5,50,103.5,40,99.5,44" style="stroke:#A80036;stroke-width:1.0;"/><line style="stroke:#A80036;stroke-width:1.5;" x1="99.5" x2="99.5" y1="179.9001" y2="199.9001"/><polygon fill="#A80036" points="95.5,189.9001,99.5,199.9001,103.5,189.9001,99.5,193.9001" style="stroke:#A80036;stroke-width:1.0;"/><line style="stroke:#A80036;stroke-width:1.5;" x1="99.5" x2="99.5" y1="236.2888" y2="256.2888"/><polygon fill="#A80036" points="95.5,246.2888,99.5,256.2888,103.5,246.2888,99.5,250.2888" style="stroke:#A80036;stroke-width:1.0;"/><!--MD5=[c28b840dce5bded3a51f762d2f998c1b]
@startuml RawNodes
start
if (raft.RawNode.HasReady()?) then (true)
: raftNode.Ready();
endif
: raft.RawNode.Advance();
end
@enduml

PlantUML version 1.2021.14(Sat Nov 13 00:46:50 CST 2021)
(GPL source distribution)
Java Runtime: Java(TM) SE Runtime Environment
JVM: Java HotSpot(TM) 64-Bit Server VM
Default Encoding: GBK
Language: zh
Country: CN
--></g></svg>